<?xml version="1.0"?>
<svg xmlns:rdf="http://www.w3.org/1999/02/22-rdf-syntax-ns#" xmlns="http://www.w3.org/2000/svg" xmlns:cc="http://creativecommons.org/ns#" xmlns:dc="http://purl.org/dc/elements/1.1/" xmlns:svg="http://www.w3.org/2000/svg" id="svg2" viewBox="0 0 745.99 748.01" version="1.1">
  <g id="layer1" transform="translate(70.96 74.23)">
    <g id="g3666">
      <path id="path2877" d="m302.01-74.23c-205.37 0-372.97 167.95-372.97 373.98 0 205.93 167.6 374.03 372.97 374.03 205.47 0 373.02-168.1 373.02-374.03 0-206.03-167.54-373.98-373.02-373.98z" fill="#ffcb0f" fill-opacity=".99216"/>
      <g id="g2907" stroke="#000" transform="matrix(1.1765 0 0 1.1383 -147.89 -190.63)">
        <path id="path4241" d="m232.25 349.21-15.051 122.19 24.109-34.703 24.392 34.703-15.051-121.99h-9.1933l-9.2058-0.19691z" stroke-width="3.2814" fill="none"/>
        <path id="path4256" d="m224.79 417.4h33.39" stroke-width="3.2814" fill="none"/>
        <path id="path4258" d="m226.39 397.6 29.517 0.1312" stroke-width="3.2814" fill="none"/>
        <path id="path4260" d="m228.66 379.76h25.243" stroke-width="3.2814" fill="none"/>
        <path id="path4262" d="m230.27 363.63 22.038 0.13119" stroke-width="3.2814" fill="none"/>
        <path id="path4291" d="m232.19 349.5h18.322" stroke-width="3.2814" fill="none"/>
        <path id="path4293" d="m222.7 436.53 37.588 0.0176" stroke-width="3.2814" fill="none"/>
        <path id="path3629" d="m222.52 436.54 35.53-19.4" stroke-width="3.2814" fill="none"/>
        <path id="path3631" d="m225.06 417.27 30.98-19.54" stroke-width="3.2814" fill="none"/>
        <path id="path3633" d="m226.79 397.6 27.113-17.703" stroke-width="3.2814" fill="none"/>
        <path id="path3635" d="m229.06 379.76 23.373-15.998" stroke-width="3.2814" fill="none"/>
        <path id="path3639" d="m230.13 363.5 20.301-14.046" stroke-width="3.2814" fill="none"/>
        <path id="path3676" d="m260.05 436.54-35.53-19.4" stroke-width="3.2814" fill="none"/>
        <path id="path3678" d="m257.51 417.27-30.98-19.54" stroke-width="3.2814" fill="none"/>
        <path id="path3680" d="m255.78 397.6-27.12-17.71" stroke-width="3.2814" fill="none"/>
        <path id="path3682" d="m253.51 379.76-23.38-16" stroke-width="3.2814" fill="none"/>
        <path id="path3684" d="m252.44 363.5-20.3-14.04" stroke-width="3.2814" fill="none"/>
        <path id="path3712" stroke-width="2.5805" d="m219.29 415.3v5.0517h45.067v-5.0517h-45.067z"/>
        <path id="path3712-3" stroke-width="2.8735" d="m225.81 377.04v3.0082h31.918v-3.0082h-31.918z"/>
        <path id="path4790" stroke-width="2.1876" d="m462.58 415.3c-45.129 0.28128-84.305 15.672-100.72 21.912-21.408 8.1403-45.558 14.285-66.669 30.664-10.768 8.3538-31.236 0.97922-49.375 2.5496 0 0-1.8946 68.169 5.9005 109.63 1.95 10.372 4.8285 20.489 16.549 22.808 6.2736 1.2416 21.364 3.1697 21.364 3.1697l103.5 4.5479s1.8954 23.77-3.052 15.849c-86.037-4.1717-58.386-1.7603-126.9-8.4756-18.249 0.2846-26.42-30.556-26.654-33.351-6.0048-71.82-7.257-114.11-7.257-114.11h-103.5v1.1025c0 140.53 112.15 254.54 250.47 254.54s250.54-114.01 250.54-254.54v-1.1025l0.54258-0.34454c-54.15-37.87-113.59-55.17-164.74-54.85zm-4.1372 15.986c-6.4795 29.072-2.7807 37.21-2.7807 37.21s5.6411 17.429 2.3738 32.042c-0.42606 1.9052 2.7129-5.0991 2.7129-5.0991s3.2668-4.8517 2.5094-21.223c19.62 16.955-2.0228 57.698-1.8312 62.223 9.8964-2.4192 13.768-19.914 13.768-19.914s6.9904 9.0266 1.5599 24.186c-2.3594 6.5866-12.82 19.925-10.58 20.396 0 0 3.6884 0.62695 7.3926-5.5126 2.4489 9.0994-4.5441 26.943-4.5441 26.943-11.554 20.011-36.499 35.398-42.796 34.385l-11.326-1.8605c11.518-5.2478 19.464-19.614 25.366-30.733 2.2128-3.2151 3.2555-5.5126 3.2555-5.5126s-5.8122 5.3698-13.361 4.6857c9.0935-5.2193 16.407-22.663 13.836-21.017-2.0514 1.3138-12.86 11.372-18.855 11.301 0 0 12.864-25.632 11.598-32.18 0 0-9.3412 6.5714-20.754 26.667-5.7884-3.3528-4.0693-17.985-4.0693-17.985-8.5618 5.4158-10.987 33.144-10.987 33.144s-8.747-3.243-3.7302-33.213c-4.0897 4.0327-7.0616 8.2166-9.156 12.334l-0.0677-0.13781c-0.0964 0.25483-0.17818 0.50318-0.27129 0.75798-1.9189 3.9408-3.0244 7.8113-3.5268 11.576-2.6745 11.187-2.7696 21.432 1.153 29.354-4.6365-1.7146-1.3434 0.58808-11.733-7.9932-5.8654-4.8445-9.0408-11.692-3.798-47.477 5.4688-14.427 17.248-23.596 3.6624-40.448 8.9803-4.9034 17.498 13.988 17.498 13.988s14.232-27.015 5.2901-42.378c-2.1398-3.6766 11.437 1.7104 16.413 21.43-0.11113 0.17354 15.757-13.05 8.41-46.237 11.576 2.1355 14.717 23.704 14.717 23.704 8.4995 0.64014 0.45054-34.163 22.653-47.408h-0.00011z"/>
        <path id="path3785" stroke-width=".86537px" d="m545.53 431.16c0.21617-0.81057 0.53607-13.763-0.15756-13.763-2.2294 0.64713-2.8087 2.9156-7.3915-2.6972-0.69528 1.5593-6.2533-2.9506-6.3048-4.545-0.053-1.639 0.49809-6.004 2.3643-4.9995-2.6132-3.069 2.6098-5.9085 4.2558-5.9085-0.18383-3.9392 0.33474-6.4608 4.0982-8.3325 2.0654-0.49644 6.5329 1.0527 6.5329 1.0527 1.8442-5.2522 6.5496 1.8257 6.5496 1.8257 3.938 1.7436 8.5273 3.0456 6.2511 9.0017 3.3945 6.8707 1.6902 6.6281-1.6801 11.602-1.1033 2.7585-7.5658 1.2792-7.5658 0.4545 0.043 2.843-1.508 3.4143-3.9405 2.8785l0.15756 13.786-3.1691-0.35609z"/>
        <path id="path3818" d="m543.76 391.61" stroke-width="1.1362px" fill="none"/>
        <path id="path3820" d="m543.76 391.61" stroke-width="1.1362px" fill="none"/>
        <path id="path3828" stroke-width="1.1362" d="m501.91 360.02l-9.2801 24.072 4.1013-1.3975-8.2717 16.312 4.7148-2.5298c-2.5165 6.3593-3.4972 9.3978-8.191 15.706l15.017-0.0304-0.21552 8.0439 2.2193 0.21896v0.0437l0.33056-0.0437 0.37775 0.0437v-0.0437l2.1721-0.21896 0.18686-8.1462s11.845 3.3474 13.675 3.3474c-6.1684-7.0086-6.6685-10.001-9.3094-14.553 3.3282 0.83076 4.3708 2.8346 4.3708 2.8346s-4.1446-9.8542-6.1685-13.846l5.8614 3.4911-8.3785-13.144 5.572 2.6173c-5.2635-10.649-6.7412-14.759-8.7849-22.777h-0.00015z"/>
        <path id="path3835" stroke-width=".89376px" d="m420.88 420.46v-19.194h-3.7264l11.656-21.321 41.343 0.15832 10.843 22.322h-3.3896v18.034h-56.725z"/>
      </g>
      <path id="path2886-6" fill="#ed171f" d="m302.01-74.23c-205.37 0-372.97 167.95-372.97 373.98 0 205.93 167.6 374.03 372.97 374.03 205.47 0 373.02-168.1 373.02-374.03 0-206.03-167.54-373.98-373.02-373.98zm-0.0907 86.283c158.1 0 287.06 128.78 287.06 287.84 0 66.265-23.241 130.63-65.173 182.21l-403.61-404.7v-0.45507c51.447-41.625 115.63-64.894 181.72-64.894zm-222.2 105.58v0.45509l403.65 404.7c-187.28 153.6-468.28 19.81-468.28-222.81 0-66.475 22.697-130.87 64.628-182.35z"/>
    </g>
  </g>
  <metadata>
    <rdf:RDF>
      <cc:Work>
        <dc:format>image/svg+xml</dc:format>
        <dc:type rdf:resource="http://purl.org/dc/dcmitype/StillImage"/>
        <cc:license rdf:resource="http://creativecommons.org/licenses/publicdomain/"/>
        <dc:publisher>
          <cc:Agent rdf:about="http://openclipart.org/">
            <dc:title>Openclipart</dc:title>
          </cc:Agent>
        </dc:publisher>
        <dc:title>No shale gas</dc:title>
        <dc:date>2012-04-14T18:00:25</dc:date>
        <dc:description>Like a road sign</dc:description>
        <dc:source>http://openclipart.org/detail/169524/no-shale-gas-by-cybergedeon-169524</dc:source>
        <dc:creator>
          <cc:Agent>
            <dc:title>dominiquechappard</dc:title>
          </cc:Agent>
        </dc:creator>
        <dc:subject>
          <rdf:Bag>
            <rdf:li>clip art</rdf:li>
            <rdf:li>clipart</rdf:li>
            <rdf:li>ecology</rdf:li>
            <rdf:li>forbidden</rdf:li>
            <rdf:li>fracking</rdf:li>
            <rdf:li>no fracking</rdf:li>
            <rdf:li>no shale gas</rdf:li>
            <rdf:li>oil</rdf:li>
            <rdf:li>pollution</rdf:li>
            <rdf:li>prohibited</rdf:li>
            <rdf:li>road sign</rdf:li>
            <rdf:li>shale gas</rdf:li>
            <rdf:li>stop fracking</rdf:li>
            <rdf:li>water</rdf:li>
          </rdf:Bag>
        </dc:subject>
      </cc:Work>
      <cc:License rdf:about="http://creativecommons.org/licenses/publicdomain/">
        <cc:permits rdf:resource="http://creativecommons.org/ns#Reproduction"/>
        <cc:permits rdf:resource="http://creativecommons.org/ns#Distribution"/>
        <cc:permits rdf:resource="http://creativecommons.org/ns#DerivativeWorks"/>
      </cc:License>
    </rdf:RDF>
  </metadata>
</svg>
