<?xml version="1.0" encoding="utf-8"?>
<!-- Generator: Adobe Illustrator 23.1.1, SVG Export Plug-In . SVG Version: 6.00 Build 0)  -->
<svg version="1.1"
	 id="svg2" inkscape:version="0.91 r13725" xmlns:cc="http://creativecommons.org/ns#" xmlns:dc="http://purl.org/dc/elements/1.1/" xmlns:inkscape="http://www.inkscape.org/namespaces/inkscape" xmlns:ns1="http://sozi.baierouge.fr" xmlns:rdf="http://www.w3.org/1999/02/22-rdf-syntax-ns#" xmlns:sodipodi="http://sodipodi.sourceforge.net/DTD/sodipodi-0.dtd" xmlns:svg="http://www.w3.org/2000/svg"
	 xmlns="http://www.w3.org/2000/svg" xmlns:xlink="http://www.w3.org/1999/xlink" x="0px" y="0px" viewBox="0 0 520 520"
	 style="enable-background:new 0 0 520 520;" xml:space="preserve">
<style type="text/css">
	.st0{fill:#9AE3EF;}
	.st1{fill-rule:evenodd;clip-rule:evenodd;fill:#085E08;}
</style>
<g>
	<path class="st0" d="M92.4,464.9c-6.1,4.1-9.5,4-11.9-1.9c-4.2-10.1-7.1-20.7-10.2-31.1c-1-3.3-1.1-6.9-1.7-10.7
		c131.5,0,262.7,0,394.7,0c-0.8,9.6-1,19.1-2.3,28.4c-1.9,13.8-3.9,27.7-7,41.3c-2.4,10.7-7,11.8-16.2,5.8c-3.5-2.3-6.9-1.7-8.8,2
		c-1.4,2.6-2,5.6-3,8.4c-0.9,2.4-1.9,4.6-2.9,7c-0.6,0-1.2,0-1.9,0c-0.9-3-2.1-6-2.8-9.1c-1.5-7.2-2.7-14.4-4.3-21.5
		c-0.7-3.3-1.9-6.1-6-7.1c-2-0.5-3.8-3.1-5.2-5.1c-2.6-3.7-5.7-4.7-10-3.3c-6.6,2-11.1,6.5-14.9,12c-8,11.8-11.8,25.1-12.7,39
		c-0.7,10.4,0.2,20.9,0.4,31.4c0.1,5,0.6,10,0.4,15c-0.1,3.3-0.2,7.8-5.1,7.6c-4.4-0.1-4.7-4.2-4.8-7.5c-0.1-5.3,0.4-10.6,0.5-16
		c0.2-6.2,1-12.4,0.4-18.4c-0.5-4.6-2-9.6-4.5-13.5c-6.7-10.5-20.5-12-28.5-2.5c-5.3,6.3-9.8,14-12.6,21.8c-7.6,21-9.4,42.8-5,65
		c0.8,4,0.8,8.3,0.6,12.4c-0.3,5.5-3.3,8.1-8.2,8.1c-4.7,0-7.8-2.5-7.7-7.9c0.2-8.3,1.5-16.5,2.4-24.8c1.4-13.5,0.7-27-2.4-40.2
		c-2.7-11.1-7.6-13.8-18.6-11.4c-1.6,0.4-3.2,0.8-4.9,1.1c-12.1,2.8-15.7,1.4-22.3-9.3c-3.8-6.2-7.4-12.6-11.2-18.9
		c-6.8-11.2-16.5-14.9-29.4-12.2c-21.3,4.5-31.8,19-29,40.6c0.6,4.9,1.2,9.9,1.3,14.9c0.2,4.1-1.9,6.8-6.3,6.6
		c-4.3-0.1-5.8-2.9-5.5-6.8c0.3-4.5,1.6-9,1.4-13.4c-0.3-7.4-0.5-15-2.6-22c-2.7-9.1-10-14.2-19.5-15.7c-4.6-0.7-7.2,1-8,5.3
		c-1.3,6.9-2.2,13.8-3.2,20.7c-0.5,3.3-0.7,6.6-1.4,9.9c-0.4,1.9-1.5,3.8-2.2,5.6c-0.5,0-1.1-0.1-1.6-0.1c-0.6-2.3-1.5-4.5-1.7-6.8
		c-1.1-10.3-1.8-20.6-3-30.8c-0.5-3.9-1.6-7.9-3.2-11.4c-2.2-4.7-6.6-4.8-8.5-0.1c-2.4,5.9-4.1,12.3-5.1,18.7
		c-2.6,17.1-0.8,34.2,1.2,51.3c0.4,3.8,0.3,7.6-0.1,11.4c-0.3,3.3-2.3,5.5-5.9,5.6c-3.9,0.1-6.5-1.9-6.5-5.4
		c-0.2-7.8,0.1-15.6,0.7-23.4c2.1-27.2,1.4-54.3-1.3-81.3C94.1,469.7,93.2,467.6,92.4,464.9z"/>
	<path class="st0" d="M130,548.7c1.4,11.6,3,18.3,4,29.9c0.6,6.7,0.7,18.6,0,25.3c-0.3,3-3,7.8-5,8c-4.4,0.4-5.5-4.6-5.5-8
		c-0.1-9.9,0.2-19.9,1-29.8c0.7-8.6,2.2-17.1,3.4-25.6C128.6,548.7,129.3,548.7,130,548.7z"/>
	<path class="st0" d="M422.6,547.6c2.4,9.3,4.8,18.6,3.5,28.2c-0.3,2.5-2.5,4.7-3.8,7.1c-1.5-2.3-4.4-4.7-4.3-7
		c0.3-9.5,1.4-19,2.2-28.5C420.9,547.5,421.7,547.6,422.6,547.6z"/>
</g>
<g id="g12" transform="translate(-45.819 -146.79)">
	<path id="path3001" class="st0" d="M562,407.5C562,548.1,446.8,662,304.7,662S47.4,548.1,47.4,407.5S162.6,153,304.7,153
		S562,267,562,407.5z"/>
	<path id="path16" class="st1" d="M231.7,311c21.8,6.8-24.8,29.4-9.9,14c3.9-5-1.5-11.2,8.3-12.3l0.6-1.2L231.7,311L231.7,311z
		 M191,222.8c15.9-4.8,17.2-12.5,33.3-19.9c3.3-7.8,10.9-10.7,17.2-14.7c-14.4,2.7-2.9-10.5-17.4,0.7c6.2-10.7-19.7-3.4-1.4-3.7
		c-9,10.2-28.2,26.7-42.5,35c-2.5-1.7,18.2-18.9,0.2-4.5c-5.7,10.3-23.3,13.9-11.3,1.3c8.6-4.6,5.4-15.3,12.1-9.1
		c11.2-4.8,8.6-6,19.5-11.8c-9.2-2.2-21.3,7.8-30.9,10.1c25.3-20.8-16-3.5-21.3,8.8c-9.3,9.4-31.5,28.6-9.6,12
		c5.2,2.8,32.1-28.7,29.4-12.2c-6,5.5-8.2,10.2-15.2,13.8c-11.2,12,22.3-10.5,1.7,6.2c-13.7,9.1-11.7,27.1-25.4,35.7
		c-9,2.8-11.5,25.9-13.9,17.8c-12.4-11.4,25.3-21.2,3.8-20.3c-1.6-4.2-2.8,6.6-7.5-0.1c-5.9,8.1,1.4,18.8-10.2,16.7
		c-10.8,0.1,14.4-12.1-5.1-8.6c-3.1-1.5-8,6.5-12.9,13c-14.1,10.3-18.7,25.9-24.2,43.4c-15.8,50.7-15.3,117.9,5,165.6
		C109,603,205.3,666,315.6,661.4c-10.4-4.3-34-19.1-12.3-28.6c-12.3-8.6-6.5-21.6-23.4-30.1c11.1-9.6,2.4-23.7-11.6-20.6
		c-12.5,1.9-19.1-13.1-32.2-6.6c-18.3,1.2-38.3-5.3-55-14c-15.7-15.1-33-33.9-31.9-55c4.1-11.4,6.7-18.7,4-29.6
		c13.2-11.7,18.9-30.3,36.9-30.1c-3.3-15,39.2-32.3,10.8-33.3c-0.5-14.6,1.4-19.1,7.4-33.6c-1.8-24.8,25.5,6.5,31.9-7.9
		c13-14.8-23.3-31.2,5.3-27.1c11,0.1,14.8-9.6,0.4-5.2c-11.1-0.8-21,1.8-6.8-7.5c-11.5-3.3,13.1-8,0.9-15.7
		c-0.7-4.4,5.1-6.3-0.9-5.7c-3.1-4.2,8.8-9.7-1.4-12.1c5.4-15.6,4.8-2.8,8.4-4.9c4.4-0.9,10,4.9,2.9,11.4
		c6.2,11.2,14.2,23.9,10.5,31.6c6.5-5.2,19-9.4,22.6-14.3c-9.6-17.9,19.3-26.7,6.4-10.5c-5.2,12,9.5,10.1-0.1,3.1
		c7.8,1.8,12.7-6.2,5.8-14.7c-1.2-12-14.9,10.3-17.7-3.8c-8.9-21.3,23.3-24.4,27.2-42.6c-7.7,1.7,18.2-23.9,29.5-12
		c12.4,0.6,36.8,15.6,11.3,12.6c0.7-0.8,3.9,13.7,12.6,11.8c9.8,2.3-6.7-7.1,2-6.3c-1.8-7.1,6.5-11.8-2.4-17.6
		c14.7-2.2,2.7,6,12.4,10.4c10.1,6.9-6-23.4,8.7-12c18.5-19.6-21.8-1.3-22.6-19.1c-8.2-13.9,4.8-24.2,4.7-5.1
		c3.5,13.9,19.4,9.8,30.2,11.9c4.8,1-25.3-13.1-15.5-17.8c7-2.2,9.7,0,5.4-4.4c-2.9-5.1-8.8-11.1-11.6-16.4
		c-18.4-10.3,22.7-0.2,8.6-10.8c-6.2,0.2,5-11-10.5-8.5c-11,7.2-31.2-12-9.9-1.2c16.5,1.3-17.2-14-25.3-15
		c-26.3-3.2-47.2-0.5-72.9,2.8c-14.1,1.8-11.7,12-1.2,9.8c-2.8,8.1-17.2,5.9-1.8,6.6c-9.6,4.1,19.8,5.3,6.4,13.7
		c7.9,3.7,20.4,9.9,11.9,11.4c17-0.4-12.1,13.7-12.9,20.8c-11.5,4.6-21.4,16.9-26.1,12.2c8.6,6.6-8.3,7.8-13,5.2
		c-11.5-4.1-27.9,7.3-39.2,15.1C162.4,266.1,176,229.9,191,222.8L191,222.8z M429.9,624.5c6.4-13.2,18.3-22.2,30.7-31.9
		c15.8-5.8-10.5,22.4-19.4,25.8C437.7,620.9,434.2,623.5,429.9,624.5L429.9,624.5z M432.9,605.7c-1.7,18.9-28.9,19.4-37.6,33.3
		c-8.8,4.4-27.6,16.8-5.4,8.7c56.8-20.7,87-50.3,105.3-69.1c41.9-42.9,68.2-108,66.7-178.7c-2-5.2-11.6-50.6-13-29.1
		c-0.2,22.8-0.7,45.7,1.2,68.4c-6.5,30.3-15.8-35.4-17.6-18.7c-6.7-1.6-7.4-5.1-15.7-9.2c-6.1,9.2-19.6,20.7-28.1,13.8
		c-5.8,17.9-20.8,2.6-26.4-1.7c-14.2,12.1,20.2,25.7,24,16.3c4.6-13.9,1.8-11,10.4-5.7c11,2.3,1.8,23.5-1.5,33.1
		c-9,12.1-13.6,29.3-28.5,39.1c-8.5,11.2-19.6,17.2-19.4-2.8c-10.1-14.7-23.2-18-31.4-34.6c-0.9-12.4-11.3-15.8-14.2-8.2
		c-7.1-4.6,10.6,20.1,14.8,23.5c6.5,18.5,18.4,31.3,36.9,36.7c1.5,24.8,40.2-38.2,30.3-5.6c-7,24.3-26.1,41.6-39,62.6
		C437,586.1,426.6,596.3,432.9,605.7L432.9,605.7z M395.2,599.6c8.2,0.3,18.9-13.7,8.6-12.5C396.9,587.3,397.1,594.8,395.2,599.6z
		 M302.5,209.2c6.7-9.8,13,1.7,6.6,2.2c7.9,9.1-6.8-3-4.8,11.4C302,222,291.7,200.1,302.5,209.2L302.5,209.2z M318.3,265
		c1.6,9.9-18.1,16.5-1.5,24.1c-1.7,10.2-9.7,27.7-18.4,28c-11.6,8.3,14.2,7.3,18.3,0.9c9.5,4,7.4-4.3,9.3-9.4
		c-4.1-11.6,13.9,1.1,3.8-12.6c-10.3,8.9,6.6-9.8,13.1-6.9c-3-7.8-24.6,12.4-20.9-3.8C308.1,276.1,344.4,259,318.3,265L318.3,265z
		 M365.9,361c0.9,5.5-1.5,14.7-5.9,21.6c10.5,12.7,31.2-9.6,47.3,0c19.6-12.3-23.2-30.4-26.8-10.8c-8.2-6.3,4.7-15.2-8.5-13.4
		C368.7,357.9,368.6,352.5,365.9,361L365.9,361z M445,384.1c13.1,7.2,27.2-6.4,11.3-14.8c-6.9-8.9-9-16.3-18.4-20.2
		c-4.8-2,10.4-23.1-5.9-13.4c-11.3,5.2-5.8,20.5,0.4,25.3C448.4,370.9,446.7,365.2,445,384.1L445,384.1z M283.7,411.2
		c-10.8,6.8-10-9.9-5.6-14.7c-0.8-5.5,8.6-19.8,5.2-3.5C280.8,398,287.3,405.2,283.7,411.2L283.7,411.2z M217.3,417.2
		c7.5,18.2,42.5-2.5,61,7.4c8.9-3.3,14.6-1.4,11.5,8.1c-12.8,4.6,3.9,11.4,8.1,10.2c12.4,1.7,15.4,12.9,28.9,14.3
		c10.5,3.1,2.9-23.9,21.4-15c3.9,6.2,12.7,3.1,20,4.8c12.4,4.2,18.9-10.7,30.7-8.7c4.1-9.3,2.9-37.2,1.4-33
		c-7.2,6.5-18.9,7-28.6,11.7c-4.9-3.7-9.6,4.6-11.2-8.5c-3.4-7.2-4-20.1-17.5-7.8c-4,0.9,12.5,9.8,9.1,14.5c-8.3-5.4-7.5-1.1-9,6.6
		c-7.7-4.6-13.7-24.8-24.5-33.9c-11.6-5.5-12.6-16.7-20.8-18.7c-6.4,16.8,27.8,28.1,22.4,33c-13.6-8.3,6.4,15.7-11.6,15
		c0.1,12.8-24.5-8.2-2.7-2.2c15.5-9.1-12.4-20-17.5-28.8c-4.9-19.7-17.7,9.8-27.6-6.6c-1,8.7-21.5,15.4-19.5,28.6
		C234.2,415,228.1,417.4,217.3,417.2L217.3,417.2z M220.4,257.4c0.6,0.2,9-14.3,7.9-5.7c20.1,2.6-1.1,21.7-11.7,8.7L220.4,257.4z"/>
</g>
</svg>
